<svg xmlns="http://www.w3.org/2000/svg" version="1.1" xmlns:xlink="http://www.w3.org/1999/xlink" xmlns:svgjs="http://svgjs.dev/svgjs" viewBox="0 0 800 400"><path d="M712.1863403320312,29.03225326538086C711.5889689127604,32.16845385233561,710.3942260742188,42.1744270324707,708.6021118164062,47.849456787109375C706.8099975585938,53.52448654174805,704.5698547363281,58.45280202229818,701.4336547851562,63.08243179321289C698.2974548339844,67.71206156412761,695.1612548828125,72.19234911600749,689.784912109375,75.62723541259766C684.4085693359375,79.06212170918782,676.3440551757812,82.34766387939453,669.1755981445312,83.6917495727539C662.0071411132812,85.03583526611328,653.942626953125,85.63320668538411,646.774169921875,83.6917495727539C639.605712890625,81.7502924601237,631.5411987304688,78.01672236124675,626.1648559570312,72.04300689697266C620.7885131835938,66.06929143269856,614.3667704264323,54.42054430643717,614.51611328125,47.849456787109375C614.6654561360677,41.27836926778158,622.4312845865885,36.6487398147583,627.0609130859375,32.61648178100586C631.6905415852865,28.584223747253418,638.2616271972656,23.655908584594727,642.2938842773438,23.655908584594727C646.3261413574219,23.655908584594727,648.2675984700521,28.882909456888836,651.2544555664062,32.61648178100586C654.2413126627604,36.35005410512289,658.2735697428385,41.27836990356445,660.2150268554688,46.057342529296875C662.156483968099,50.8363151550293,663.3512268066406,56.36200205485026,662.9031982421875,61.29031753540039C662.4551696777344,66.21863301595052,660.8123982747396,69.9522050221761,657.52685546875,75.62723541259766C654.2413126627604,81.30226580301921,648.5662841796875,90.41218439737956,643.18994140625,95.34049987792969C637.8135986328125,100.26881535847981,631.6905415852865,102.21027119954427,625.268798828125,105.19712829589844C618.8470560709635,108.18398539225261,611.0812276204427,110.57347106933594,604.6594848632812,113.26164245605469C598.2377421061198,115.94981384277344,592.2640279134115,118.18995666503906,586.7383422851562,121.32615661621094C581.212656656901,124.46235656738281,574.1935424804688,126.85183970133464,571.50537109375,132.07884216308594C568.8171997070312,137.30584462483725,569.8625996907552,147.90919748942056,570.6093139648438,152.68817138671875C571.3560282389323,157.46714528401694,573.4468282063802,157.61648559570312,575.9856567382812,160.752685546875C578.5244852701823,163.88888549804688,582.5567423502604,168.96654256184897,585.84228515625,171.50537109375C589.1278279622396,174.04419962565103,592.5627136230469,173.2974853515625,595.6989135742188,175.98565673828125C598.8351135253906,178.673828125,604.3607991536459,183.7514851888021,604.6594848632812,187.6343994140625C604.9581705729166,191.5173136393229,602.8673706054688,195.69891103108725,597.4910278320312,199.28314208984375C592.1146850585938,202.86737314860025,579.5698852539062,207.34766896565756,572.4014282226562,209.13978576660156C565.2329711914062,210.93190256754556,561.0513712565104,208.99044291178384,554.4802856445312,210.0358428955078C547.9092000325521,211.08124287923178,541.1887766520182,213.4707285563151,532.9749145507812,215.4121856689453C524.7610524495443,217.35364278157553,507.2879130045573,221.38589986165366,505.1971130371094,221.68458557128906C503.10631306966144,221.98327128092447,517.8912811279297,217.95101420084634,520.4301147460938,217.2042999267578" fill="none" stroke-width="3" stroke="#ffffff" stroke-linecap="round" stroke-dasharray="11 10"></path><defs><linearGradient id="SvgjsLinearGradient1000"><stop stop-color="hsl(37, 99%, 67%)" offset="0"></stop><stop stop-color="hsl(316, 73%, 52%)" offset="1"></stop></linearGradient></defs></svg>